Coordinates
version=1
nRows=21
nColumns=12
inDegrees=yes

Units are S.I. units (second, meters, Newtons, ...)
Angles are in degrees

endheader
time	SC_y	SC_z	SC_x	AC_y	AC_z	AC_x	GH_y	GH_z	GH_yy	EL_x	PS_y
       0.0              -14.62        -0.9913          43.08          40.27          9.164         -12.35          103.0          69.55          148.6          10.12          133.7
   0.03221              -14.62        -0.9855          43.07          40.27          9.164         -12.35          103.0          69.55          148.6          10.13          133.7
   0.06442              -14.63        -0.9792          43.07          40.27          9.163         -12.35          103.0          69.55          148.5          10.14          133.7
   0.09664              -14.64        -0.9726          43.07          40.27          9.162         -12.35          103.0          69.54          148.5          10.15          133.7
    0.1288              -14.64        -0.9656          43.07          40.27          9.161         -12.35          103.0          69.54          148.5          10.16          133.7
    0.1611              -14.65         -0.958          43.07          40.27          9.159         -12.34          103.0          69.53          148.5          10.17          133.6
    0.1933              -14.66          -0.95          43.06          40.27          9.158         -12.34          103.0          69.53          148.5          10.18          133.6
    0.2255              -14.67        -0.9414          43.06          40.27          9.157         -12.34          103.0          69.52          148.5           10.2          133.6
    0.2577              -14.68        -0.9322          43.06          40.27          9.156         -12.34          103.0          69.51          148.5          10.21          133.6
    0.2899              -14.69        -0.9224          43.05          40.26          9.154         -12.33          103.0          69.51          148.5          10.22          133.5
    0.3221               -14.7        -0.9118          43.05          40.26          9.153         -12.33          103.1           69.5          148.4          10.24          133.5
    0.3543              -14.71        -0.9004          43.05          40.26          9.151         -12.33          103.1          69.49          148.4          10.26          133.5
    0.3865              -14.72        -0.8881          43.04          40.26          9.149         -12.33          103.1          69.49          148.4          10.27          133.5
    0.4188              -14.74        -0.8748          43.04          40.26          9.147         -12.32          103.1          69.48          148.4          10.29          133.4
     0.451              -14.75        -0.8604          43.03          40.26          9.145         -12.32          103.1          69.47          148.4          10.31          133.4
    0.4832              -14.77        -0.8449          43.03          40.26          9.143         -12.31          103.1          69.46          148.3          10.34          133.3
    0.5154              -14.79        -0.8279          43.02          40.26           9.14         -12.31          103.1          69.44          148.3          10.36          133.3
    0.5476              -14.81        -0.8095          43.02          40.25          9.138         -12.31          103.2          69.43          148.3          10.39          133.2
    0.5798              -14.83        -0.7893          43.01          40.25          9.135          -12.3          103.2          69.42          148.3          10.42          133.2
     0.612              -14.85        -0.7673           43.0          40.25          9.131         -12.29          103.2           69.4          148.2          10.45          133.1
    0.6442              -14.88        -0.7431           43.0          40.25          9.128         -12.29          103.2          69.39          148.2          10.48          133.1
